<svg id="Layer_1" data-name="Layer 1" xmlns="http://www.w3.org/2000/svg" viewBox="0 0 660 115"><defs><style>.cls-1{stroke:#000;stroke-miterlimit:10;}</style></defs><path class="cls-1" d="M57.17,86.9c0,.62-.52.93-1.55.93H37.72c-1.09,0-1.64-.27-1.64-.82s1.28-.93,3.83-1.13c1.35-.14,2.14-.43,2.35-.87a17.82,17.82,0,0,0,.33-4.78v-30H17.79V79.38q0,4.64.58,5.46T22.24,86c1.43.13,2.14.44,2.14.92s-.55.93-1.65.93H4.86c-1.1,0-1.65-.27-1.65-.82s.55-.89,1.65-1l2.22-.21a2.92,2.92,0,0,0,2.31-1A31.06,31.06,0,0,0,9.64,79V24.69c0-3.09-.13-4.9-.38-5.45s-1.11-.86-2.59-.93C5,18.17,4,18.06,3.66,18s-.45-.36-.45-.87.36-.87,1.07-.87c.22,0,.69,0,1.4.11,1.37.14,4.61.2,9.72.2q4.2,0,5.85-.15a6,6,0,0,1,1.48-.16c1,0,1.49.35,1.49,1s-.9.93-2.68.93-2.86.26-3.21.77-.54,2.16-.54,4.91V47.67h24.8V25.45q0-5.47-.66-6.46c-.44-.65-2-.94-4.61-.88-.83,0-1.24-.3-1.24-.93s.47-.93,1.4-.93h18c1.16,0,1.73.31,1.73.93s-1.21,1-3.62,1a4.3,4.3,0,0,0-1.57.21,1.55,1.55,0,0,0-1,1.13,32.08,32.08,0,0,0-.2,4.84V79.18c0,3.29.13,5.22.4,5.77.55.75,2.12,1.13,4.72,1.13C56.74,85.94,57.17,86.22,57.17,86.9Z"/><path class="cls-1" d="M100.92,76.76c0,.07,0,.5-.12,1.3s-.13,1.52-.13,2.15v6a9.94,9.94,0,0,0,.25,2.06l-13.75-.31-15.73.31c-1.16,0-1.74-.27-1.74-.82s.33-.93,1-.93c1.76,0,2.79-.15,3.09-.46s.46-1.43.46-3.35V47.25c0-2.81-.2-4.3-.58-4.48a9.53,9.53,0,0,0-2.88-.25c-.66,0-1-.24-1-.73s.36-.82,1.07-.82H99v.71l.08,1.52c.11,1,.33,4.06.66,9.14a8.34,8.34,0,0,1,.08,1.21q0,1.32-.57,1.32c-.5,0-.85-.68-1.07-2.06Q97.06,45,93.86,43.65q-1.8-.72-8.53-.72H81.15V62.19h2q5.24,0,6.45-1.09t1.64-5.92q.24-2.88,1-2.88c.55,0,.82.69.82,2.06q0,1.23-.12,3.81c-.08,1.72-.13,3-.13,3.91,0,4.47.07,7.52.19,9.17,0,.55.06,1,.06,1.34q0,1.65-.81,1.65c-.49,0-.81-.86-1-2.58Q90.74,66.1,89.6,65t-6.42-1.08h-2V86.18q12-.11,14.19-.82,3.27-1.14,3.85-9.89c.06-1,.36-1.54.91-1.54S100.92,74.87,100.92,76.76Z"/><path class="cls-1" d="M143.85,78.56c0,3.85-.06,7.07-.17,9.68a6.14,6.14,0,0,1-1.24.1l-1.27-.15a25.82,25.82,0,0,0-3.09-.15h-3.87l-14.09-.21h-6.76c-.71,0-1.07-.23-1.07-.68s1.07-.67,3.21-.87c.61-.06,1-.24,1.12-.51a7.36,7.36,0,0,0,.2-2.27V48.92q0-5.78-.74-6.09a3.14,3.14,0,0,0-1.44-.21,6.12,6.12,0,0,1-1.44-.1c-.61,0-.91-.28-.91-.83s.36-.72,1.08-.72H126.7c1,0,1.57.29,1.57.87,0,.39-.9.61-2.72.68-.87.06-1.4.31-1.56.72a19.87,19.87,0,0,0-.25,4.44V86c2.19.06,3.77.1,4.76.1q8.85,0,11.07-2.16,1.8-1.76,2.3-7.42c.11-1.65.41-2.47.9-2.47Q143.85,74,143.85,78.56Z"/><path class="cls-1" d="M185.86,76.76c0,.07,0,.5-.12,1.3s-.12,1.52-.12,2.15v6a9.89,9.89,0,0,0,.24,2.06l-13.75-.31-15.73.31c-1.16,0-1.74-.27-1.74-.82s.33-.93,1-.93c1.75,0,2.78-.15,3.09-.46s.45-1.43.45-3.35V47.25c0-2.81-.19-4.3-.58-4.48a9.48,9.48,0,0,0-2.88-.25c-.66,0-1-.24-1-.73s.36-.82,1.07-.82H184v.71l.08,1.52c.11,1,.33,4.06.66,9.14a8.34,8.34,0,0,1,.08,1.21q0,1.32-.57,1.32c-.5,0-.85-.68-1.07-2.06Q182,45,178.8,43.65q-1.8-.72-8.53-.72h-4.18V62.19h2q5.23,0,6.46-1.09c.81-.72,1.36-2.69,1.63-5.92q.26-2.88,1-2.88c.55,0,.82.69.82,2.06q0,1.23-.12,3.81c-.08,1.72-.12,3-.12,3.91,0,4.47.06,7.52.18,9.17,0,.55.06,1,.06,1.34q0,1.65-.81,1.65c-.49,0-.81-.86-1-2.58q-.49-5.56-1.63-6.64t-6.42-1.08h-2V86.18q12.06-.11,14.19-.82,3.27-1.14,3.85-9.89c.06-1,.36-1.54.91-1.54S185.86,74.87,185.86,76.76Z"/><path class="cls-1" d="M233.32,41.69c0,.48-.61.72-1.81.72h-2.06q-.75,0-.87.42a16.68,16.68,0,0,0-.12,2.79v38c0,2.49,0,3.94-.08,4.35a.67.67,0,0,1-.75.62c-.6,0-2.56-2.88-5.85-8.64-.39-.76-1-1.79-1.81-3.1-.11-.21-.41-.72-.9-1.55q-4.12-6.84-14.92-25.68V82.24c0,2.56.29,3.91.87,4a15.7,15.7,0,0,0,3.17.21h.33c.66,0,1,.23,1,.67s-.61.77-1.81.77c-.22,0-1.13-.07-2.72-.2-.83-.07-1.57-.11-2.23-.11a13.06,13.06,0,0,0-1.65.11,27.28,27.28,0,0,1-3.37.2c-.88,0-1.32-.25-1.32-.77s.52-.67,1.56-.67h.75l1.07-.1c1.31-.14,2-.45,2.06-.94a29.31,29.31,0,0,0,.08-3V53.92q0-7.77-.74-9.33-1-2.07-3.87-2.07-2.07,0-2.07-.87c0-.45.36-.68,1.08-.68h10.46l19.44,33.47V45.81a14.05,14.05,0,0,0-.16-3c-.11-.27-.55-.41-1.32-.41h-2.22c-1.05,0-1.57-.25-1.57-.77q0-.48.78-.57c.52-.07,2.38-.1,5.56-.1q4.53,0,5.28.09C233.07,41.12,233.32,41.33,233.32,41.69Z"/><path class="cls-1" d="M281.27,87.31c0,.42-.55.62-1.65.62H263.39c-1,0-1.48-.27-1.48-.82s1-.85,3-.92c2.36-.06,3.55-.4,3.55-1a17.93,17.93,0,0,0-.5-1.94c-.11-.55-.74-2.83-1.89-6.86l-1-3.47H253.26q-3.39,10.6-3.38,12.25a1,1,0,0,0,1,1l1.07.1h1.23l.74.31q1,0,1,.63c0,.47-.57.71-1.73.71l-2.92-.15c-1.79-.1-3.37-.16-4.74-.16h-.74l-.74.16-.91.15H243c-.88,0-1.32-.2-1.32-.62s.36-.75,1.07-.82a17.84,17.84,0,0,0,2-.21,2.83,2.83,0,0,0,1.81-.93q.5-.3,4-11.77,1.4-4.65,2.72-8.67c.33-1,.55-1.69.66-2.17s.33-1.2.65-2.17q1.41-4.23,4-12.8l1.24-4.32.57-1.86c.33-1,.66-1.55,1-1.55.16,0,.52,1,1.07,2.89q2.48,7.51,12.77,39.75c.66,2.13,1.29,3.26,1.9,3.4a20,20,0,0,0,2.63.31C280.75,86.46,281.27,86.77,281.27,87.31ZM264.54,71.15l-5.3-17.6q-2,6.16-5.5,17.6Z"/><path class="cls-1" d="M336.3,17.23c0,.52-.57.77-1.73.77a16.47,16.47,0,0,0-3.87.26,1.21,1.21,0,0,0-.87.88,35.06,35.06,0,0,0-.12,4V65.85c.06,4.74.06,8.63,0,11.65a67.82,67.82,0,0,1-.74,9.59,17.13,17.13,0,0,1-4.84,9.23q-3.86,3.87-8.21,3.87a6.78,6.78,0,0,1-5.17-2.11,7.78,7.78,0,0,1-2-5.51c0-3.92,1.54-5.87,4.62-5.87a4.07,4.07,0,0,1,3.17,1.44,5.38,5.38,0,0,1,1.28,3.71,6,6,0,0,1-1.07,3.5A3.63,3.63,0,0,0,316,97.1c0,.62.42.93,1.24.93,1.76,0,3-1.34,3.71-4q.57-2.16.58-12.67V22.54c0-2.2-.53-3.57-1.57-4.12a14.16,14.16,0,0,0-4-.31,4.84,4.84,0,0,1-1.85-.21.65.65,0,0,1-.37-.62c0-.68.44-1,1.32-1h18.54C335.42,16.25,336.3,16.58,336.3,17.23Z"/><path class="cls-1" d="M384.42,87.31c0,.42-.55.62-1.65.62H366.54c-1,0-1.48-.27-1.48-.82s1-.85,3-.92q3.54-.09,3.54-1a16.5,16.5,0,0,0-.49-1.94c-.11-.55-.74-2.83-1.9-6.86l-1-3.47H356.41Q353,83.51,353,85.15a1,1,0,0,0,1,1l1.07.1h1.23l.74.31q1,0,1,.63c0,.47-.57.71-1.73.71l-2.92-.15c-1.79-.1-3.37-.16-4.74-.16h-.74l-.74.16-.91.15h-.16c-.88,0-1.32-.2-1.32-.62s.36-.75,1.07-.82a17.84,17.84,0,0,0,2-.21,2.86,2.86,0,0,0,1.81-.93q.5-.3,4-11.77,1.4-4.65,2.72-8.67c.33-1,.54-1.69.66-2.17a20.8,20.8,0,0,1,.65-2.17q1.41-4.23,4-12.8l1.24-4.32.57-1.86c.33-1,.66-1.55,1-1.55.16,0,.52,1,1.07,2.89q2.47,7.51,12.77,39.75c.66,2.13,1.29,3.26,1.89,3.4a20.61,20.61,0,0,0,2.64.31C383.89,86.46,384.42,86.77,384.42,87.31ZM367.69,71.15l-5.3-17.6q-2,6.16-5.51,17.6Z"/><path class="cls-1" d="M431.79,87c0,.42-.1.66-.29.73a9.43,9.43,0,0,1-1.93.1H415.81c-1,0-1.49-.19-1.49-.58s.91-.77,2.72-1c1.1-.13,1.65-.41,1.65-.82a11.75,11.75,0,0,0-1.9-3q-1.73-2.28-13.26-18.11V82.89c0,1.64.16,2.61.49,2.88s1.4.45,3.22.51c.6,0,.9.28.9.83s-.41.72-1.23.72H393.23c-.77,0-1.15-.27-1.15-.82s.79-.9,2.39-.83c1.1,0,1.73-.2,1.89-.62a19.7,19.7,0,0,0,.25-4.42V46.63a30.69,30.69,0,0,0-.08-3.19c-.17-.55-1-.82-2.36-.82s-2.09-.31-2.09-.93.38-.72,1.16-.72h.83a9,9,0,0,0,1.24.1l5.38-.1,3.48.1L407,41c.78,0,1.16.28,1.16.82s-.9.76-2.72.83a3.37,3.37,0,0,0-1.6.36c-.19.17-.29.74-.29,1.7v17q15.41-17.82,15.41-18.54c0-.34-1.13-.51-3.38-.51-.66,0-1-.28-1-.83a.65.65,0,0,1,.58-.72c.38-.06,1.75-.1,4.12-.1,4.22,0,6.7,0,7.41.1s1.07.32,1.07.78c0,.65-.49.94-1.48.87H424c-.77-.07-1.7.55-2.8,1.86q-1.07,1.14-3.29,3.72-3.3,3.91-10.06,11.66,1.08,1.44,7.83,10l9.72,12.29a26.82,26.82,0,0,0,3.05,3.45,4,4,0,0,0,2.39.57Q431.79,86.28,431.79,87Z"/><path class="cls-1" d="M477.68,64.71q0,10-5.19,16.9T459.8,88.55q-8,0-13.47-7T440.85,64.3q0-10.59,5.23-17.32a16.23,16.23,0,0,1,13.39-6.73q7.74,0,13,7T477.68,64.71Zm-7.74.31q0-11.92-3.88-18.81c-1.65-2.94-3.92-4.42-6.83-4.42-4,0-6.93,2.75-8.74,8.22a47.57,47.57,0,0,0-1.89,14.6q0,10.58,3,16.54t8.24,6Q469.94,87.11,469.94,65Z"/><path class="cls-1" d="M520.44,75.57a11.31,11.31,0,0,1-2.76,7.83,13.17,13.17,0,0,1-7.62,4,96,96,0,0,1-12.77.51h-6.35q-.57.1-.57-.72,0-.61.33-.72a10,10,0,0,1,2-.1c1.1,0,1.73-.14,1.9-.41a7.43,7.43,0,0,0,.25-2.58V46.22a10.61,10.61,0,0,0-.25-3.14c-.17-.31-1.05-.5-2.64-.56-1.15-.07-1.73-.31-1.73-.73S490.81,41,492,41h1.4c.61,0,2.23.07,4.87.21h4q5.68.1,7.17.31a11.89,11.89,0,0,1,3.62.92Q519,45.1,519,51.78q0,9.38-11.54,11.13l.08.31q6,.11,9.48,3.45A11.8,11.8,0,0,1,520.44,75.57Zm-8.9-23.12c0-4.5-.82-7.34-2.45-8.5a8.09,8.09,0,0,0-4.66-1,14.26,14.26,0,0,0-2,.1l-.65.1V62.19q4.41-.11,6-1Q511.55,59,511.54,52.45Zm1.73,22.35q0-10.86-9.82-10.86h-1.71v20.6c0,.82.13,1.32.4,1.49a6.28,6.28,0,0,0,2.38.25Q513.27,86.28,513.27,74.8Z"/><path class="cls-1" d="M559.08,74.61a13.65,13.65,0,0,1-4,9.84,12.79,12.79,0,0,1-9.55,4.1,14.82,14.82,0,0,1-8.65-3.2,2.44,2.44,0,0,0-.66-.2c-.33,0-.53.33-.58,1a13.21,13.21,0,0,1-.25,1.7.79.79,0,0,1-.82.73c-.55,0-.83-.34-.83-1,0-.14.06-1.17.17-3.09s.16-3.57.16-4.94V74.24c0-1.31.28-2,.83-2s1,1.06,1.23,3.19q1.58,11.32,9.73,11.33,6.92,0,6.92-8.61A10.5,10.5,0,0,0,551.17,72c-1.1-1.58-3.24-3.35-6.43-5.34q-6.25-3.89-8-6.15a12,12,0,0,1-2.22-7.38,13.29,13.29,0,0,1,3.29-9.28,10.73,10.73,0,0,1,8.32-3.64,12.18,12.18,0,0,1,6.68,2.37,1.27,1.27,0,0,0,.66.31c.38,0,.63-.5.74-1.5s.44-1.49,1-1.49.82.35.82,1c0,.14,0,.41-.08.82-.11,1.1-.17,2.51-.17,4.23,0,1,.09,2.88.25,5.56a5.12,5.12,0,0,1,.08.93q0,1.23-.66,1.23c-.49,0-.85-.61-1.07-1.84a14.65,14.65,0,0,0-3-7.19A6.78,6.78,0,0,0,546.06,42q-5.92,0-5.93,7.9a9.87,9.87,0,0,0,1.56,5.74,7.63,7.63,0,0,0,1.82,2c.66.47,2.58,1.67,5.76,3.58a26.65,26.65,0,0,1,7.58,6.31A11.66,11.66,0,0,1,559.08,74.61Z"/><path class="cls-1" d="M602.25,76.76c0,.07,0,.5-.12,1.3a19.52,19.52,0,0,0-.13,2.15v6a9.94,9.94,0,0,0,.25,2.06l-13.75-.31-15.74.31c-1.16,0-1.73-.27-1.73-.82s.32-.93,1-.93c1.76,0,2.79-.15,3.09-.46s.46-1.43.46-3.35V47.25c0-2.81-.2-4.3-.58-4.48a9.58,9.58,0,0,0-2.88-.25c-.66,0-1-.24-1-.73s.35-.82,1.07-.82h28.18v.71l.08,1.52c.11,1,.33,4.06.66,9.14a8.34,8.34,0,0,1,.08,1.21q0,1.32-.57,1.32c-.5,0-.85-.68-1.07-2.06q-1.15-7.81-4.35-9.16-1.8-.72-8.53-.72h-4.18V62.19h2c3.48,0,5.64-.36,6.45-1.09s1.37-2.69,1.64-5.92q.24-2.88,1-2.88c.55,0,.82.69.82,2.06q0,1.23-.12,3.81c-.08,1.72-.13,3-.13,3.91,0,4.47.07,7.52.19,9.17,0,.55.06,1,.06,1.34q0,1.65-.81,1.65c-.49,0-.81-.86-1-2.58q-.48-5.56-1.62-6.64t-6.42-1.08h-2V86.18q12-.11,14.19-.82,3.27-1.14,3.85-9.89c.05-1,.36-1.54.91-1.54S602.25,74.87,602.25,76.76Z"/><path class="cls-1" d="M649.71,41.69c0,.48-.61.72-1.82.72h-2.06c-.49,0-.78.14-.86.42a16.68,16.68,0,0,0-.12,2.79v38q0,3.73-.09,4.35a.66.66,0,0,1-.74.62q-.91,0-5.86-8.64c-.38-.76-1-1.79-1.8-3.1-.11-.21-.41-.72-.9-1.55q-4.12-6.84-14.92-25.68V82.24c0,2.56.29,3.91.87,4a15.7,15.7,0,0,0,3.17.21h.33c.66,0,1,.23,1,.67s-.61.77-1.82.77c-.22,0-1.12-.07-2.72-.2-.82-.07-1.56-.11-2.22-.11a13.06,13.06,0,0,0-1.65.11,27.32,27.32,0,0,1-3.38.2c-.87,0-1.31-.25-1.31-.77s.52-.67,1.56-.67h.74l1.07-.1c1.32-.14,2-.45,2.06-.94a25.13,25.13,0,0,0,.09-3V53.92q0-7.77-.75-9.33-1-2.07-3.87-2.07c-1.37,0-2.06-.29-2.06-.87S612,41,612.71,41h10.47l19.44,33.47V45.81a14.05,14.05,0,0,0-.16-3c-.11-.27-.55-.41-1.32-.41h-2.23c-1,0-1.56-.25-1.56-.77q0-.48.78-.57c.52-.07,2.38-.1,5.56-.1,3,0,4.78,0,5.27.09S649.71,41.33,649.71,41.69Z"/></svg>
