<svg xmlns="http://www.w3.org/2000/svg" viewBox="0 0 555.67 249.03"><defs><style>.cls-1{fill:none;stroke:#000;stroke-miterlimit:10;stroke-width:3px;}</style></defs><g id="Layer_2" data-name="Layer 2"><g id="Layer_1-2" data-name="Layer 1"><line class="cls-1" x1="1.51" y1="151" x2="1.51" y2="1.99"/><line class="cls-1" x1="554.17" y1="249.03" x2="554.17" y2="100.03"/><line class="cls-1" x1="553.67" y1="247.53" x2="404.66" y2="247.53"/><line class="cls-1" x1="149.01" y1="1.5" y2="1.5"/><path d="M86.29,105.4v36.49H84V124.53H62.55v17.36H60.22V105.4h2.33v16.79H84V105.4Z"/><path d="M116.89,128.91H96.35a12.63,12.63,0,0,0,1.42,5.66,9.93,9.93,0,0,0,13,4.22A8.56,8.56,0,0,0,114.1,136l1.33,1.72a10.44,10.44,0,0,1-3.91,3.29,12.16,12.16,0,0,1-11.46-.63,12.16,12.16,0,0,1-4.37-4.9,15.69,15.69,0,0,1-1.58-7.14,16.52,16.52,0,0,1,1.49-7.12,12,12,0,0,1,4.09-4.93,10.59,10.59,0,0,1,11.69,0,11.88,11.88,0,0,1,4.07,4.87,16.35,16.35,0,0,1,1.49,7.09ZM101,118a9.27,9.27,0,0,0-3.23,3.6,13,13,0,0,0-1.39,5.24h18.3a12,12,0,0,0-1.38-5.21,9.59,9.59,0,0,0-3.24-3.6,8.18,8.18,0,0,0-4.53-1.3A8.27,8.27,0,0,0,101,118Z"/><path d="M124,103.21h2.28v38.68H124Z"/><path d="M156.13,128.91H135.6a12.51,12.51,0,0,0,1.42,5.66,9.62,9.62,0,0,0,3.59,3.83,10.18,10.18,0,0,0,9.42.39,8.6,8.6,0,0,0,3.31-2.84l1.33,1.72a10.44,10.44,0,0,1-3.91,3.29,12.16,12.16,0,0,1-11.46-.63,12.23,12.23,0,0,1-4.37-4.9,15.69,15.69,0,0,1-1.57-7.14,16.52,16.52,0,0,1,1.48-7.12,12,12,0,0,1,4.1-4.93,10.57,10.57,0,0,1,11.68,0,11.81,11.81,0,0,1,4.07,4.87,16.35,16.35,0,0,1,1.49,7.09ZM140.26,118a9.25,9.25,0,0,0-3.22,3.6,12.87,12.87,0,0,0-1.4,5.24h18.3a12,12,0,0,0-1.37-5.21,9.7,9.7,0,0,0-3.25-3.6,8.13,8.13,0,0,0-4.53-1.3A8.27,8.27,0,0,0,140.26,118Z"/><path d="M182,117.44q2.61,3,2.61,8.55v15.9h-2.29V126.2c0-3.06-.68-5.38-2-7a7.08,7.08,0,0,0-5.7-2.4,8.21,8.21,0,0,0-6.63,2.87,11.52,11.52,0,0,0-2.42,7.71v14.49h-2.29V114.68h2.2v5.89a9.93,9.93,0,0,1,3.68-4.48,10.23,10.23,0,0,1,5.78-1.62A8.94,8.94,0,0,1,182,117.44Z"/><path d="M208.92,117.05c1.58,1.72,2.38,4.25,2.38,7.59v17.25h-2.2v-4.84a8.5,8.5,0,0,1-3.34,3.72,9.91,9.91,0,0,1-5.26,1.33,8.88,8.88,0,0,1-6.29-2.14,7.3,7.3,0,0,1-2.31-5.63,7.42,7.42,0,0,1,2.13-5.5c1.42-1.4,3.68-2.11,6.79-2.11H209v-2.19a8.28,8.28,0,0,0-1.81-5.78,6.78,6.78,0,0,0-5.28-2,11.43,11.43,0,0,0-4.55.93,11.12,11.12,0,0,0-3.68,2.51l-1.15-1.88a12.51,12.51,0,0,1,4.3-2.84,13.88,13.88,0,0,1,5.26-1A8.82,8.82,0,0,1,208.92,117.05Zm-3,21.35a9.42,9.42,0,0,0,3.13-4.53v-5.11h-8.14c-2.35,0-4.05.48-5.1,1.46a5.2,5.2,0,0,0-1.58,4,5.33,5.33,0,0,0,1.74,4.2,7.16,7.16,0,0,0,4.89,1.53A8.21,8.21,0,0,0,205.88,138.4Z"/><path d="M259.28,105.4v36.49H257V124.53H235.54v17.36h-2.33V105.4h2.33v16.79H257V105.4Z"/><path d="M268.08,141.45a2.31,2.31,0,0,1-.57-1.59,2.21,2.21,0,0,1,.57-1.56,1.76,1.76,0,0,1,2.7,0,2.21,2.21,0,0,1,.57,1.56,2.31,2.31,0,0,1-.57,1.59,1.73,1.73,0,0,1-2.7,0Z"/><path d="M289.35,140.77a10.14,10.14,0,0,1-3.63-3.83l1.41-1.77a10.11,10.11,0,0,0,3.14,3.41,7,7,0,0,0,4,1.18,5.59,5.59,0,0,0,4.78-2.11c1.06-1.41,1.58-3.58,1.58-6.5V107.8h-11.8v-2.4h14.13v25.75q0,5.47-2.19,8.24a7.8,7.8,0,0,1-6.5,2.76A9.21,9.21,0,0,1,289.35,140.77Z"/><path d="M327.93,117.05q2.38,2.58,2.38,7.59v17.25h-2.19v-4.84a8.62,8.62,0,0,1-3.34,3.72,10,10,0,0,1-5.26,1.33,8.88,8.88,0,0,1-6.29-2.14,7.3,7.3,0,0,1-2.31-5.63,7.42,7.42,0,0,1,2.13-5.5c1.41-1.4,3.68-2.11,6.79-2.11H328v-2.19a8.32,8.32,0,0,0-1.81-5.78,6.8,6.8,0,0,0-5.28-2,11.48,11.48,0,0,0-4.56.93,11.33,11.33,0,0,0-3.68,2.51l-1.14-1.88a12.42,12.42,0,0,1,4.3-2.84,13.88,13.88,0,0,1,5.26-1A8.78,8.78,0,0,1,327.93,117.05Zm-3,21.35a9.43,9.43,0,0,0,3.14-4.53v-5.11h-8.15c-2.34,0-4,.48-5.1,1.46a5.19,5.19,0,0,0-1.57,4,5.32,5.32,0,0,0,1.73,4.2,7.17,7.17,0,0,0,4.9,1.53A8.18,8.18,0,0,0,324.89,138.4Z"/><path d="M348.24,127.35,342,133.81v8.08h-2.28V103.21H342v27.37l15.28-15.9h2.93l-10.29,11,11.29,16.21H358.4Z"/><path d="M368.89,140.33a12.05,12.05,0,0,1-4.27-4.93,17,17,0,0,1,0-14.23,12.18,12.18,0,0,1,4.27-4.93,11.43,11.43,0,0,1,12.22,0,12.18,12.18,0,0,1,4.27,4.93,17,17,0,0,1,0,14.23,12.05,12.05,0,0,1-4.27,4.93,11.43,11.43,0,0,1-12.22,0Zm11-2a10,10,0,0,0,3.43-4.07,14.66,14.66,0,0,0,0-11.89,10,10,0,0,0-3.43-4.06,9,9,0,0,0-9.84,0,10.1,10.1,0,0,0-3.43,4.06,14.76,14.76,0,0,0,0,11.89,10.13,10.13,0,0,0,3.43,4.07,9,9,0,0,0,9.84,0Z"/><path d="M412.05,116.22a11.81,11.81,0,0,1,4.23,4.9,17.5,17.5,0,0,1,0,14.31,12.07,12.07,0,0,1-4.23,4.9,10.77,10.77,0,0,1-6,1.77,10.11,10.11,0,0,1-5.78-1.74,11.42,11.42,0,0,1-4-4.88v6.41H394V103.21h2.29v17.67a11.18,11.18,0,0,1,4-4.71,10.11,10.11,0,0,1,5.71-1.7A10.83,10.83,0,0,1,412.05,116.22Zm-1.23,22.08a10,10,0,0,0,3.45-4.07,14.66,14.66,0,0,0,0-11.89,10,10,0,0,0-3.45-4.06,8.76,8.76,0,0,0-4.94-1.46,8.65,8.65,0,0,0-4.92,1.46,10,10,0,0,0-3.43,4.06,14.66,14.66,0,0,0,0,11.89A10,10,0,0,0,401,138.3a8.65,8.65,0,0,0,4.92,1.46A8.76,8.76,0,0,0,410.82,138.3Z"/><path d="M425.45,141.11a11,11,0,0,1-4.07-2.5l1.05-2.09a11.89,11.89,0,0,0,3.78,2.35,12.62,12.62,0,0,0,4.82.94q3.62,0,5.33-1.36a4.49,4.49,0,0,0,1.72-3.75,3.8,3.8,0,0,0-.94-2.71,5.67,5.67,0,0,0-2.31-1.46,36.69,36.69,0,0,0-3.8-1,28.48,28.48,0,0,1-4.57-1.25,7.08,7.08,0,0,1-3-2.19,6.38,6.38,0,0,1-1.24-4.17,6.88,6.88,0,0,1,2.36-5.35,9.73,9.73,0,0,1,6.7-2.11,14.8,14.8,0,0,1,4.53.73,10.91,10.91,0,0,1,3.66,1.93l-1.06,2.09a10.42,10.42,0,0,0-3.34-1.83,12,12,0,0,0-3.84-.62,7.78,7.78,0,0,0-5,1.4,4.59,4.59,0,0,0-1.69,3.71,4,4,0,0,0,1,2.84,6,6,0,0,0,2.35,1.51,38.71,38.71,0,0,0,3.92,1.07,30.64,30.64,0,0,1,4.5,1.22,7,7,0,0,1,2.91,2.11,6.21,6.21,0,0,1,1.18,4,6.66,6.66,0,0,1-2.47,5.42q-2.46,2-6.95,2A15.35,15.35,0,0,1,425.45,141.11Z"/><path d="M466.94,128.91H446.4a12.51,12.51,0,0,0,1.42,5.66,9.62,9.62,0,0,0,3.59,3.83,9.78,9.78,0,0,0,5.1,1.36,9.64,9.64,0,0,0,4.32-1,8.63,8.63,0,0,0,3.32-2.84l1.33,1.72a10.4,10.4,0,0,1-3.92,3.29,12.14,12.14,0,0,1-11.45-.63,12.16,12.16,0,0,1-4.37-4.9,15.69,15.69,0,0,1-1.58-7.14,16.52,16.52,0,0,1,1.49-7.12,12,12,0,0,1,4.09-4.93,10.59,10.59,0,0,1,11.69,0,11.88,11.88,0,0,1,4.07,4.87,16.35,16.35,0,0,1,1.49,7.09ZM451.07,118a9.27,9.27,0,0,0-3.23,3.6,12.86,12.86,0,0,0-1.39,5.24h18.29a11.91,11.91,0,0,0-1.37-5.21,9.54,9.54,0,0,0-3.25-3.6,8.12,8.12,0,0,0-4.52-1.3A8.27,8.27,0,0,0,451.07,118Z"/><path d="M492.83,117.44q2.61,3,2.61,8.55v15.9h-2.29V126.2c0-3.06-.68-5.38-2-7a7,7,0,0,0-5.69-2.4,8.18,8.18,0,0,0-6.63,2.87,11.53,11.53,0,0,0-2.43,7.71v14.49h-2.29V114.68h2.2v5.89a9.93,9.93,0,0,1,3.68-4.48,10.24,10.24,0,0,1,5.79-1.62A9,9,0,0,1,492.83,117.44Z"/></g></g></svg>
